<svg xmlns="http://www.w3.org/2000/svg" viewBox="0 0 100 100"><defs><radialGradient id="a" cx=".3" cy=".3" r=".7"><stop offset="0%" style="stop-color:#60a5fa;stop-opacity:1"/><stop offset="100%" style="stop-color:#1e40af;stop-opacity:1"/></radialGradient><radialGradient id="c" cx=".5" cy=".5" r=".5"><stop offset="0%" style="stop-color:#f8fafc;stop-opacity:1"/><stop offset="100%" style="stop-color:#e2e8f0;stop-opacity:1"/></radialGradient><filter id="b" x="-50%" y="-50%" width="200%" height="200%"><feDropShadow dx="2" dy="4" stdDeviation="3" flood-color="rgba(0,0,0,0.3)"/></filter><filter id="d" x="-50%" y="-50%" width="200%" height="200%"><feGaussianBlur stdDeviation="2" result="coloredBlur"/><feMerge><feMergeNode in="coloredBlur"/><feMergeNode in="SourceGraphic"/></feMerge></filter></defs><circle cx="50" cy="50" r="48" fill="url(#a)" filter="url(#b)"/><g stroke="#3b82f6" fill="none" opacity=".6"><ellipse cx="50" cy="50" rx="40" ry="15"/><ellipse cx="50" cy="50" rx="40" ry="30"/><ellipse cx="50" cy="50" rx="35" ry="40"/><path d="M50 10q-15 40 0 80 15-40 0-80"/><path d="M50 10q-30 40 0 80 30-40 0-80m0 0v80"/></g><circle cx="50" cy="50" r="25" fill="url(#c)" stroke="#1e40af" stroke-width="2"/><path d="M49 27h2v6h-2zm20 22h6v2h-6zM49 67h2v6h-2zM25 49h6v2h-6z" stroke="#1e40af" stroke-width="2" fill="#1e40af"/><path d="M50 50h12m-12 0V35" stroke="#1e40af" stroke-width="2" stroke-linecap="round" fill="none"/><circle cx="50" cy="50" r="3" fill="#1e40af"/><g fill="#fbbf24" filter="url(#d)"><circle cx="25" cy="35" r="2"/><circle cx="75" cy="35" r="2"/><circle cx="75" cy="65" r="2"/><circle cx="25" cy="65" r="2"/></g><ellipse cx="38" cy="38" rx="12" ry="8" fill="rgba(255,255,255,0.2)" transform="rotate(-20 38 38)"/></svg>